{"title":"Nickelodeon Olivia 2009 NTSC DVD-R (RLG)","uid":9357263,"size":3860246528,"categoryP":"video","categoryS":"movies_dvdr","magnet":"?xt=urn:btih:3df60492c7fa11a1a33daa8ef59b3f74fbfe3f0f&amp;dn=Nickelodeon+Olivia+2009+NTSC+DVD-R+%28RLG%29&amp;tr=udp%3A%2F%2Ftracker.openbittorrent.com%3A80&amp;tr=udp%3A%2F%2Fopen.demonii.com%3A1337&amp;tr=udp%3A%2F%2Ftracker.coppersurfer.tk%3A6969&amp;tr=udp%3A%2F%2Fexodus.desync.com%3A6969","seeders":0,"leechers":2,"uploader":"RedLegsGreaves","files":-1,"time":1387238320,"description":" &lt;a href=&quot;http://www.myolivia.com/home.php&quot; rel=&quot;nofollow&quot; target=&quot;_NEW&quot;&gt;http://www.myolivia.com/home.php&lt;/a&gt;\n\nOLIVIA is a television series that invites young children into the life of an adventurous, imaginative and lovable 6 Â¾ year old girl. Based on the award-winning, best-selling books written and illustrated by Ian Falconer, the OLIVIA television series appeals to both preschoolers and parents alike.\n\nLanguage: English.\nSubtitles: English, Spanish.\n\nFor Newer Users.\nSimply Drag downloaded folder to your Media Player. This is a PAL DVD.\nThis is ripped so you would have best quality, menu, bonus/special feature, language options etc.\nNote:DVDs may not have have all* features.\n\nVideo\nID                                       : 224 (0xE0)\nFormat                                   : MPEG Video\nFormat version                           : Version 2\nFormat profile                           : Main@Main\nFormat settings, BVOP                    : Yes\nFormat settings, Matrix                  : Custom\nFormat settings, GOP                     : Variable\nDuration                                 : 4mn 16s\nBit rate mode                            : Variable\nBit rate                                 : 32.6 Mbps\nMaximum bit rate                         : 9 800 Kbps\nWidth                                    : 720 pixels\nHeight                                   : 480 pixels\nDisplay aspect ratio                     : 4:3\nFrame rate                               : 29.970 fps\nStandard                                 : Component\nColor space                              : YUV\nChroma subsampling                       : 4:2:0\nBit depth                                : 8 bits\nScan type                                : Progressive\nScan order                               : Top Field First\nCompression mode                         : Lossy\nBits/(Pixel*Frame)                       : 3.148\nTime code of first frame                 : 00:59:59;00\nTime code source                         : Group of pictures header\nStream size                              : 998 MiB (97%)\nColor primaries                          : BT.601 NTSC\nTransfer characteristics                 : BT.601\nMatrix coefficients                      : BT.601\n\nAudio\nID                                       : 189 (0xBD)-128 (0x80)\nFormat                                   : AC-3\nFormat/Info                              : Audio Coding 3\nFormat profile                           : Dolby Digital\nMode extension                           : CM (complete main)\nFormat settings, Endianness              : Big\nMuxing mode                              : DVD-Video\nDuration                                 : 4mn 16s\nBit rate mode                            : Constant\nBit rate                                 : 192 Kbps\nChannel count                            : 2 channels\nChannel positions                        : Front: L R\nSampling rate                            : 48.0 KHz\nBit depth                                : 16 bits\nCompression mode                         : Lossy\nStream size                              : 5.87 MiB (1%)","torrent":{"xt":"urn:btih:3df60492c7fa11a1a33daa8ef59b3f74fbfe3f0f","amp;dn":"Nickelodeon+Olivia+2009+NTSC+DVD-R+%28RLG%29","amp;tr":["udp%3A%2F%2Ftracker.openbittorrent.com%3A80","udp%3A%2F%2Fopen.demonii.com%3A1337","udp%3A%2F%2Ftracker.coppersurfer.tk%3A6969","udp%3A%2F%2Fexodus.desync.com%3A6969"],"infoHash":"3df60492c7fa11a1a33daa8ef59b3f74fbfe3f0f","infoHashBuffer":{"type":"Buffer","data":[61,246,4,146,199,250,17,161,163,61,170,142,245,155,63,116,251,254,63,15]},"announce":[],"urlList":[]}}